<?xml version="1.0" encoding="iso-8859-1"?>
<!-- Generator: Adobe Illustrator 19.0.0, SVG Export Plug-In . SVG Version: 6.00 Build 0)  -->
<svg version="1.1" id="Capa_1" xmlns="http://www.w3.org/2000/svg" xmlns:xlink="http://www.w3.org/1999/xlink" x="0px" y="0px"
	 viewBox="0 0 60 60" style="enable-background:new 0 0 60 60;" xml:space="preserve">
<g>
	<path d="M59.699,10.293l-0.254-0.254c0.575-0.906,0.471-2.122-0.318-2.911l-6.441-6.441c-0.761-0.761-2.009-0.863-2.906-0.314
		l-0.079-0.079C49.512,0.105,49.257,0,48.992,0h-2c-0.265,0-0.52,0.105-0.707,0.293l-1,1C45.098,1.48,44.992,1.734,44.992,2v2h-2
		c-0.265,0-0.52,0.105-0.707,0.293l-1,1C41.098,5.48,40.992,5.734,40.992,6v2c0,0.266,0.105,0.52,0.293,0.707l0.065,0.065
		c-0.686,1.01-0.113,2.514,0.496,3.338c0.023,0.05,0.056,0.137,0.068,0.201l-1.548,1.507l5.584,5.584l1.601-1.559
		c0.067,0.065,0.143,0.12,0.226,0.164c0.224,0.119,1.391,0.715,2.327,0.715c0.421,0,0.721-0.117,0.939-0.256l0.24,0.24
		C51.473,18.895,51.727,19,51.992,19h2c0.265,0,0.52-0.105,0.707-0.293l1-1c0.188-0.188,0.293-0.441,0.293-0.707v-2h2
		c0.265,0,0.52-0.105,0.707-0.293l1-1c0.188-0.188,0.293-0.441,0.293-0.707v-2C59.992,10.734,59.887,10.48,59.699,10.293z
		 M46.992,2.414L47.406,2h1.172l0.414,0.414v1.172L48.578,4h-1.172l-0.414-0.414V2.414z M42.992,6.414L43.406,6h1.172l0.414,0.414
		v1.172L44.578,8h-1.172l-0.414-0.414V6.414z M53.992,16.586L53.578,17h-1.172l-0.414-0.414v-1.172L52.406,15h1.172l0.414,0.414
		V16.586z M57.992,12.586L57.578,13h-1.172l-0.414-0.414v-1.172L56.406,11h1.172l0.414,0.414V12.586z"/>
	<polygon points="36.785,17.308 42.37,22.892 44.519,20.798 38.935,15.214 	"/>
	<path d="M39.507,25.681l-0.719,0.701l2.149-2.093l-5.585-5.585l-2.149,2.093l0.748-0.728c-0.467-0.315-0.922-0.596-1.374-0.829
		c-1.486-0.766-3.725-1.678-5.944-1.678c-1.582,0-2.957,0.452-4.086,1.344c-0.426,0.271-2.377,1.647-4.22,5.192
		c-1.312,2.521-4.272,2.887-5.482,2.926c-0.427,0.014-0.824,0.063-1.213,0.149c-2.094,0.467-7.208,1.89-9.468,5.001l-0.085,0.118
		c-3.489,4.887-2.462,12.729,2.289,17.481c0.867,0.867,1.968,1.977,3.339,3.372c1.383,1.36,2.493,2.461,3.36,3.328
		C13.374,58.78,16.246,60,19.372,60h0.001c2.68,0,5.371-0.909,7.788-2.634l0.106-0.078c3.117-2.263,4.54-7.378,5.007-9.472
		c0.086-0.389,0.135-0.785,0.149-1.211c0.04-1.213,0.405-4.174,2.927-5.484c3.544-1.843,4.92-3.794,5.191-4.221
		c1.885-2.389,1.768-5.947-0.332-10.029C40.002,26.47,39.762,26.073,39.507,25.681z M15.992,48.657l0.707,0.707
		c0.391,0.391,0.391,1.023,0,1.414c-0.195,0.195-0.451,0.293-0.707,0.293s-0.512-0.098-0.707-0.293l-0.707-0.707l-0.707,0.707
		c-0.195,0.195-0.451,0.293-0.707,0.293s-0.512-0.098-0.707-0.293c-0.391-0.391-0.391-1.023,0-1.414l0.707-0.707l-0.707-0.707
		l-0.707,0.707c-0.195,0.195-0.451,0.293-0.707,0.293s-0.512-0.098-0.707-0.293c-0.391-0.391-0.391-1.023,0-1.414l0.707-0.707
		l-0.708-0.708l-0.707,0.707c-0.195,0.195-0.451,0.293-0.707,0.293s-0.512-0.098-0.707-0.293c-0.391-0.391-0.391-1.023,0-1.414
		l0.707-0.707l-0.707-0.707c-0.391-0.391-0.391-1.023,0-1.414s1.023-0.391,1.414,0L10.335,43l8.95-8.949
		c0.391-0.391,1.023-0.391,1.414,0s0.391,1.023,0,1.414l-8.95,8.949l0.708,0.708l9.828-9.829c0.391-0.391,1.023-0.391,1.414,0
		s0.391,1.023,0,1.414l-9.828,9.829l0.707,0.707l8.95-8.95c0.391-0.391,1.023-0.391,1.414,0s0.391,1.023,0,1.414L15.992,48.657z
		 M27.67,37.21c0.205,0.73,0.322,1.496,0.322,2.29c0,4.687-3.813,8.5-8.5,8.5v-2c3.584,0,6.5-2.916,6.5-6.5
		c0-0.789-0.148-1.542-0.407-2.242c-0.073-0.199-0.157-0.394-0.249-0.584c-0.004-0.008-0.008-0.016-0.012-0.024
		c-0.092-0.188-0.193-0.37-0.302-0.547c-0.006-0.01-0.012-0.02-0.018-0.03c-0.108-0.173-0.224-0.34-0.347-0.502
		c-0.01-0.013-0.019-0.026-0.029-0.039c-0.12-0.155-0.247-0.303-0.38-0.447c-0.017-0.018-0.033-0.037-0.05-0.055
		c-0.127-0.134-0.26-0.261-0.398-0.383c-0.027-0.024-0.052-0.049-0.08-0.072c-0.13-0.112-0.265-0.216-0.403-0.318
		c-0.039-0.028-0.076-0.059-0.116-0.086c-0.133-0.093-0.271-0.178-0.411-0.261c-0.048-0.028-0.094-0.059-0.142-0.086
		c-0.146-0.082-0.297-0.154-0.45-0.225C21.375,33.218,20.46,33,19.492,33c-3.584,0-6.5,2.916-6.5,6.5h-2c0-4.687,3.813-8.5,8.5-8.5
		c0.965,0,1.889,0.169,2.754,0.467l2.359-2.297l5.585,5.585L27.67,37.21z M31.623,33.359l-5.585-5.585l2.15-2.094l5.585,5.585
		L31.623,33.359z M35.206,29.87l-5.585-5.585l2.149-2.093l5.585,5.585L35.206,29.87z"/>
</g>
<g>
</g>
<g>
</g>
<g>
</g>
<g>
</g>
<g>
</g>
<g>
</g>
<g>
</g>
<g>
</g>
<g>
</g>
<g>
</g>
<g>
</g>
<g>
</g>
<g>
</g>
<g>
</g>
<g>
</g>
</svg>
